<?xml version="1.0" standalone="no"?>
<!DOCTYPE svg PUBLIC "-//W3C//DTD SVG 20010904//EN"
 "http://www.w3.org/TR/2001/REC-SVG-20010904/DTD/svg10.dtd">
<svg version="1.0" xmlns="http://www.w3.org/2000/svg"
 width="320.000000pt" height="320.000000pt" viewBox="0 0 320.000000 320.000000"
 preserveAspectRatio="xMidYMid meet">
<metadata>
Created by potrace 1.14, written by Peter Selinger 2001-2017
</metadata>
<g transform="translate(0.000000,320.000000) scale(0.100000,-0.100000)"
fill="#000000" stroke="none">
<path d="M1450 3194 c-269 -34 -509 -120 -718 -257 -368 -241 -608 -593 -703
-1033 -18 -82 -22 -133 -23 -294 0 -220 11 -299 70 -490 109 -350 354 -672
658 -865 168 -107 396 -195 596 -232 146 -26 422 -24 565 6 512 104 916 413
1142 872 56 115 113 286 139 424 28 141 25 448 -5 580 -84 367 -249 653 -514
890 -205 184 -479 320 -754 376 -96 19 -371 33 -453 23z m416 -183 c133 -26
237 -61 369 -127 401 -197 677 -557 777 -1011 31 -140 30 -404 0 -549 -83
-390 -290 -701 -610 -915 -169 -113 -322 -177 -526 -221 -135 -29 -397 -31
-531 -4 -805 160 -1311 907 -1154 1701 28 136 61 229 131 366 225 438 659 731
1163 783 81 8 284 -4 381 -23z"/>
<path d="M1525 2758 c-710 -527 -1225 -918 -1225 -930 0 -5 27 -38 61 -73 l61
-64 87 65 86 65 3 -366 2 -366 51 51 51 52 -3 146 c-2 81 -3 240 -1 353 l2
206 193 145 c155 117 419 313 665 495 18 13 39 23 48 21 8 -2 212 -151 454
-331 l440 -329 0 -193 c0 -141 4 -212 16 -264 14 -60 15 -89 6 -179 l-10 -107
44 -45 44 -45 0 373 c0 219 4 372 9 372 5 0 45 -27 88 -60 l78 -60 63 64 c34
35 62 68 62 73 0 9 -96 84 -495 386 l-110 84 -3 208 c-1 133 -6 213 -13 222
-15 18 -259 19 -277 1 -8 -8 -12 -46 -12 -105 0 -51 -3 -93 -7 -93 -3 0 -90
63 -193 140 -103 77 -189 140 -191 140 -2 0 -35 -24 -74 -52z"/>
<path d="M965 1718 c-32 -11 -91 -52 -113 -78 -7 -8 -25 -40 -40 -70 -21 -44
-26 -70 -26 -125 0 -115 51 -202 146 -249 175 -88 378 44 378 244 0 124 -56
220 -154 266 -55 26 -137 31 -191 12z m38 -135 c32 -21 58 -28 110 -31 57 -4
69 -8 79 -26 6 -11 20 -31 31 -43 51 -56 -27 -206 -120 -232 -47 -13 -59 -13
-105 -1 -76 21 -137 102 -138 181 0 28 5 38 25 49 32 17 65 69 65 104 0 14 2
26 5 26 3 0 24 -12 48 -27z"/>
<path d="M940 1445 c-16 -19 -6 -45 19 -45 23 0 35 28 20 46 -15 18 -24 18
-39 -1z"/>
<path d="M1120 1445 c-17 -20 -5 -45 20 -45 11 0 23 7 26 15 6 15 -11 45 -26
45 -4 0 -13 -7 -20 -15z"/>
<path d="M2074 1654 c-64 -23 -119 -77 -155 -150 -29 -59 -33 -77 -37 -175 -4
-104 -3 -112 24 -172 26 -55 29 -73 29 -162 0 -93 -2 -104 -33 -163 l-32 -63
29 -25 c17 -14 43 -51 58 -82 26 -52 28 -68 31 -194 l4 -137 71 26 c165 59
325 159 450 281 l69 67 -4 100 c-5 116 -23 161 -93 235 l-43 45 -4 180 c-5
200 -14 236 -78 309 -73 82 -191 116 -286 80z m220 -280 l58 -18 -4 -54 c-6
-64 -46 -126 -100 -155 -45 -23 -125 -25 -165 -3 -63 33 -113 112 -113 180 0
30 4 36 33 45 36 12 85 53 112 94 l18 27 52 -49 c36 -35 68 -54 109 -67z
m-204 -310 c46 -17 96 -17 145 2 71 27 75 27 75 10 0 -61 -73 -118 -150 -118
-79 0 -140 46 -140 107 0 22 3 26 18 20 9 -4 33 -14 52 -21z"/>
<path d="M2046 1324 c-9 -22 17 -49 39 -40 10 3 15 15 13 28 -4 29 -42 37 -52
12z"/>
<path d="M2234 1326 c-9 -24 4 -48 23 -44 24 4 24 52 0 56 -9 2 -20 -4 -23
-12z"/>
<path d="M1494 1256 c-132 -61 -193 -237 -130 -371 28 -60 98 -128 151 -145
47 -16 150 -8 192 13 84 44 143 143 143 244 0 206 -183 339 -356 259z m45
-147 c34 -45 119 -82 182 -77 57 4 65 -7 54 -72 -12 -74 -78 -142 -150 -156
-87 -16 -184 52 -203 143 -11 47 -10 49 19 71 33 27 59 71 59 102 0 28 13 25
39 -11z"/>
<path d="M1494 986 c-9 -24 4 -48 23 -44 12 2 18 12 18 28 0 29 -32 41 -41 16z"/>
<path d="M1660 985 c-17 -20 -5 -45 20 -45 11 0 23 7 26 15 6 15 -11 45 -26
45 -4 0 -13 -7 -20 -15z"/>
<path d="M832 1135 c-112 -48 -193 -149 -212 -267 -7 -39 -10 -93 -7 -121 5
-53 8 -58 128 -163 86 -76 234 -164 368 -218 105 -43 101 -47 101 107 0 118 3
137 24 182 13 28 38 65 57 83 30 31 32 35 19 55 -45 71 -54 103 -55 187 0 47
4 99 8 117 12 47 -20 53 -87 17 -43 -24 -62 -29 -126 -29 -74 0 -98 7 -160 47
-22 15 -29 15 -58 3z"/>
<path d="M1363 668 c-17 -18 -35 -42 -41 -53 -5 -11 -11 -85 -13 -165 l-4
-144 55 -14 c76 -19 364 -21 458 -4 l72 14 0 137 c0 124 -2 142 -23 181 -12
24 -35 52 -49 63 l-26 19 -59 -28 c-49 -25 -70 -29 -138 -29 -67 1 -89 5 -133
28 -30 15 -57 27 -61 27 -4 0 -21 -15 -38 -32z"/>
</g>
</svg>
